<svg xmlns="http://www.w3.org/2000/svg" height="512pt" version="1.1" viewBox="0 0 512 512" width="512pt">
<g id="surface1">
<path d="M 512 256 C 512 397.386719 397.386719 512 256 512 C 114.613281 512 0 397.386719 0 256 C 0 114.613281 114.613281 0 256 0 C 397.386719 0 512 114.613281 512 256 Z M 512 256 " style=" stroke:none;fill-rule:nonzero;fill:rgb(20%,22.352941%,25.098039%);fill-opacity:1;"/>
<path d="M 512 256 C 512 245.253906 511.328125 234.667969 510.042969 224.269531 L 410.84375 125.070312 L 388.5625 171.046875 L 311.613281 94.097656 L 113.152344 374.929688 L 250.152344 511.925781 C 252.097656 511.96875 254.046875 512 256 512 C 397.386719 512 512 397.386719 512 256 Z M 512 256 " style=" stroke:none;fill-rule:nonzero;fill:rgb(13.72549%,15.294118%,16.862745%);fill-opacity:1;"/>
<path d="M 212.386719 125.070312 L 410.847656 125.070312 L 410.847656 405.902344 L 212.386719 405.902344 Z M 212.386719 125.070312 " style=" stroke:none;fill-rule:nonzero;fill:rgb(100%,100%,100%);fill-opacity:1;"/>
<path d="M 311.714844 125.070312 L 410.84375 125.070312 L 410.84375 405.902344 L 311.714844 405.902344 Z M 311.714844 125.070312 " style=" stroke:none;fill-rule:nonzero;fill:rgb(91.372549%,92.941176%,96.078431%);fill-opacity:1;"/>
<path d="M 263.722656 165.039062 L 380.285156 165.039062 L 380.285156 190.367188 L 263.722656 190.367188 Z M 263.722656 165.039062 " style=" stroke:none;fill-rule:nonzero;fill:rgb(84.313725%,84.313725%,84.313725%);fill-opacity:1;"/>
<path d="M 263.722656 220.875 L 346.898438 220.875 L 346.898438 246.203125 L 263.722656 246.203125 Z M 263.722656 220.875 " style=" stroke:none;fill-rule:nonzero;fill:rgb(84.313725%,84.313725%,84.313725%);fill-opacity:1;"/>
<path d="M 263.722656 283.796875 L 380.285156 283.796875 L 380.285156 309.125 L 263.722656 309.125 Z M 263.722656 283.796875 " style=" stroke:none;fill-rule:nonzero;fill:rgb(84.313725%,84.313725%,84.313725%);fill-opacity:1;"/>
<path d="M 113.152344 94.097656 L 311.613281 94.097656 L 311.613281 374.929688 L 113.152344 374.929688 Z M 113.152344 94.097656 " style=" stroke:none;fill-rule:nonzero;fill:rgb(100%,85.490196%,0%);fill-opacity:1;"/>
<path d="M 214.691406 94.097656 L 311.613281 94.097656 L 311.613281 374.929688 L 214.691406 374.929688 Z M 214.691406 94.097656 " style=" stroke:none;fill-rule:nonzero;fill:rgb(100%,76.078431%,0%);fill-opacity:1;"/>
<path d="M 227.316406 278.152344 L 197.453125 278.152344 L 197.453125 263.992188 C 197.453125 245.945312 207.488281 229.648438 223.644531 221.453125 C 232.613281 216.902344 237.960938 207.453125 237.265625 197.382812 C 236.417969 185.074219 226.496094 175.152344 214.1875 174.304688 C 207.179688 173.816406 200.476562 176.179688 195.371094 180.945312 C 190.257812 185.71875 187.441406 192.195312 187.441406 199.183594 L 157.578125 199.183594 C 157.578125 184.050781 163.925781 169.445312 174.992188 159.117188 C 186.21875 148.640625 200.878906 143.453125 216.242188 144.511719 C 243.34375 146.382812 265.191406 168.230469 267.058594 195.328125 C 268.578125 217.390625 256.84375 238.097656 237.152344 248.085938 C 231.085938 251.160156 227.316406 257.257812 227.316406 263.992188 Z M 227.316406 278.152344 " style=" stroke:none;fill-rule:nonzero;fill:rgb(99.607843%,41.568627%,8.627451%);fill-opacity:1;"/>
<path d="M 267.058594 195.328125 C 265.1875 168.226562 243.34375 146.378906 216.238281 144.511719 C 215.722656 144.476562 215.207031 144.464844 214.691406 144.441406 L 214.691406 174.359375 C 226.761719 175.445312 236.429688 185.242188 237.265625 197.382812 C 237.960938 207.453125 232.613281 216.898438 223.644531 221.449219 C 220.398438 223.09375 217.40625 225.070312 214.691406 227.320312 L 214.691406 278.148438 L 227.316406 278.148438 L 227.316406 263.988281 C 227.316406 257.257812 231.085938 251.160156 237.152344 248.082031 C 256.839844 238.097656 268.578125 217.386719 267.058594 195.328125 Z M 267.058594 195.328125 " style=" stroke:none;fill-rule:nonzero;fill:rgb(98.039216%,36.470588%,5.882353%);fill-opacity:1;"/>
<path d="M 197.453125 295.523438 L 227.316406 295.523438 L 227.316406 314.289062 L 197.453125 314.289062 Z M 197.453125 295.523438 " style=" stroke:none;fill-rule:nonzero;fill:rgb(99.607843%,41.568627%,8.627451%);fill-opacity:1;"/>
<path d="M 214.691406 295.523438 L 227.316406 295.523438 L 227.316406 314.289062 L 214.691406 314.289062 Z M 214.691406 295.523438 " style=" stroke:none;fill-rule:nonzero;fill:rgb(98.039216%,36.470588%,5.882353%);fill-opacity:1;"/>
</g>
</svg>