<svg xmlns="http://www.w3.org/2000/svg" height="512pt" version="1.1" viewBox="0 0 512 512" width="512pt">
<g id="surface1">
<path d="M 512 256 C 512 397.386719 397.386719 512 256 512 C 114.613281 512 0 397.386719 0 256 C 0 114.613281 114.613281 0 256 0 C 397.386719 0 512 114.613281 512 256 Z M 512 256 " style=" stroke:none;fill-rule:nonzero;fill:rgb(100%,85.490196%,0%);fill-opacity:1;"/>
<path d="M 511.710938 268.023438 L 404.476562 160.789062 L 403.429688 164.542969 L 365.226562 126.339844 L 320.0625 241.714844 L 204.683594 126.339844 L 78.65625 360.316406 L 228.914062 510.574219 C 237.816406 511.511719 246.851562 512 256 512 C 393.355469 512 505.429688 403.824219 511.710938 268.023438 Z M 511.710938 268.023438 " style=" stroke:none;fill-rule:nonzero;fill:rgb(100%,76.078431%,0%);fill-opacity:1;"/>
<path d="M 146.746094 126.339844 L 204.683594 126.339844 L 204.683594 157.730469 L 146.746094 157.730469 Z M 146.746094 126.339844 " style=" stroke:none;fill-rule:nonzero;fill:rgb(43.921569%,46.666667%,53.72549%);fill-opacity:1;"/>
<path d="M 307.285156 126.339844 L 365.222656 126.339844 L 365.222656 157.730469 L 307.285156 157.730469 Z M 307.285156 126.339844 " style=" stroke:none;fill-rule:nonzero;fill:rgb(38.823529%,41.176471%,47.058824%);fill-opacity:1;"/>
<path d="M 164.851562 138.199219 L 347.804688 138.199219 L 347.804688 291.449219 L 164.851562 291.449219 Z M 164.851562 138.199219 " style=" stroke:none;fill-rule:nonzero;fill:rgb(20%,22.352941%,25.098039%);fill-opacity:1;"/>
<path d="M 255.761719 138.199219 L 347.804688 138.199219 L 347.804688 291.449219 L 255.761719 291.449219 Z M 255.761719 138.199219 " style=" stroke:none;fill-rule:nonzero;fill:rgb(13.72549%,15.294118%,16.862745%);fill-opacity:1;"/>
<path d="M 115.929688 378.523438 C 134.335938 378.523438 151.066406 367.839844 158.8125 351.144531 L 219.359375 220.601562 L 82.449219 220.601562 L 69.046875 325.246094 C 65.425781 353.507812 87.441406 378.523438 115.929688 378.523438 Z M 115.929688 378.523438 " style=" stroke:none;fill-rule:nonzero;fill:rgb(20%,22.352941%,25.098039%);fill-opacity:1;"/>
<path d="M 247.253906 220.601562 C 247.253906 266.109375 210.359375 303.003906 164.851562 303.003906 C 119.34375 303.003906 82.449219 266.109375 82.449219 220.601562 C 82.449219 175.09375 119.34375 138.199219 164.851562 138.199219 C 210.359375 138.199219 247.253906 175.09375 247.253906 220.601562 Z M 247.253906 220.601562 " style=" stroke:none;fill-rule:nonzero;fill:rgb(25.490196%,28.627451%,32.156863%);fill-opacity:1;"/>
<path d="M 396.722656 378.523438 C 378.320312 378.523438 361.589844 367.839844 353.84375 351.144531 L 293.296875 220.601562 L 430.203125 220.601562 L 443.609375 325.25 C 447.230469 353.507812 425.214844 378.523438 396.722656 378.523438 Z M 396.722656 378.523438 " style=" stroke:none;fill-rule:nonzero;fill:rgb(13.72549%,15.294118%,16.862745%);fill-opacity:1;"/>
<path d="M 430.203125 220.601562 C 430.203125 266.109375 393.3125 303.003906 347.804688 303.003906 C 302.292969 303.003906 265.402344 266.109375 265.402344 220.601562 C 265.402344 175.09375 302.292969 138.199219 347.804688 138.199219 C 393.3125 138.199219 430.203125 175.09375 430.203125 220.601562 Z M 430.203125 220.601562 " style=" stroke:none;fill-rule:nonzero;fill:rgb(20%,22.352941%,25.098039%);fill-opacity:1;"/>
<path d="M 207.851562 206.972656 L 178.480469 206.972656 L 178.480469 177.601562 L 151.222656 177.601562 L 151.222656 206.972656 L 121.855469 206.972656 L 121.855469 234.230469 L 151.222656 234.230469 L 151.222656 263.597656 L 178.480469 263.597656 L 178.480469 234.230469 L 207.851562 234.230469 Z M 207.851562 206.972656 " style=" stroke:none;fill-rule:nonzero;fill:rgb(43.921569%,46.666667%,53.72549%);fill-opacity:1;"/>
<path d="M 369.777344 186.597656 C 369.777344 198.734375 359.941406 208.574219 347.804688 208.574219 C 335.667969 208.574219 325.828125 198.734375 325.828125 186.597656 C 325.828125 174.460938 335.667969 164.625 347.804688 164.625 C 359.941406 164.625 369.777344 174.460938 369.777344 186.597656 Z M 369.777344 186.597656 " style=" stroke:none;fill-rule:nonzero;fill:rgb(38.823529%,41.176471%,47.058824%);fill-opacity:1;"/>
<path d="M 369.777344 256 C 369.777344 268.136719 359.941406 277.976562 347.804688 277.976562 C 335.667969 277.976562 325.828125 268.136719 325.828125 256 C 325.828125 243.863281 335.667969 234.023438 347.804688 234.023438 C 359.941406 234.023438 369.777344 243.863281 369.777344 256 Z M 369.777344 256 " style=" stroke:none;fill-rule:nonzero;fill:rgb(38.823529%,41.176471%,47.058824%);fill-opacity:1;"/>
<path d="M 404.476562 221.300781 C 404.476562 233.4375 394.640625 243.273438 382.503906 243.273438 C 370.367188 243.273438 360.527344 233.4375 360.527344 221.300781 C 360.527344 209.164062 370.367188 199.324219 382.503906 199.324219 C 394.640625 199.324219 404.476562 209.164062 404.476562 221.300781 Z M 404.476562 221.300781 " style=" stroke:none;fill-rule:nonzero;fill:rgb(38.823529%,41.176471%,47.058824%);fill-opacity:1;"/>
<path d="M 335.078125 221.300781 C 335.078125 233.4375 325.238281 243.273438 313.101562 243.273438 C 300.964844 243.273438 291.128906 233.4375 291.128906 221.300781 C 291.128906 209.164062 300.964844 199.324219 313.101562 199.324219 C 325.238281 199.324219 335.078125 209.164062 335.078125 221.300781 Z M 335.078125 221.300781 " style=" stroke:none;fill-rule:nonzero;fill:rgb(38.823529%,41.176471%,47.058824%);fill-opacity:1;"/>
<path d="M 240.335938 298.515625 C 240.335938 317.234375 225.160156 332.40625 206.441406 332.40625 C 187.726562 332.40625 172.550781 317.234375 172.550781 298.515625 C 172.550781 279.796875 187.726562 264.625 206.441406 264.625 C 225.160156 264.625 240.335938 279.796875 240.335938 298.515625 Z M 240.335938 298.515625 " style=" stroke:none;fill-rule:nonzero;fill:rgb(33.333333%,35.294118%,40%);fill-opacity:1;"/>
<path d="M 339.417969 298.515625 C 339.417969 317.234375 324.246094 332.40625 305.527344 332.40625 C 286.808594 332.40625 271.636719 317.234375 271.636719 298.515625 C 271.636719 279.796875 286.808594 264.625 305.527344 264.625 C 324.246094 264.625 339.417969 279.796875 339.417969 298.515625 Z M 339.417969 298.515625 " style=" stroke:none;fill-rule:nonzero;fill:rgb(25.490196%,28.627451%,32.156863%);fill-opacity:1;"/>
</g>
</svg>