<svg height="512pt" viewBox="-155 0 512 512" width="512pt" xmlns="http://www.w3.org/2000/svg"><path d="m46.183594 100.324219-12.015625-100.324219h136.191406l-12.039063 99.421875zm0 0" fill="#fabe3d"/><path d="m100.898438 512c-44.132813 0-80.035157-35.90625-80.035157-80.039062v-333.472657h160.074219v333.472657c0 44.132812-35.902344 80.039062-80.039062 80.039062zm0 0" fill="#fdf4f5"/><path d="m99.722656 0v99.894531l58.597656-.472656 12.039063-99.421875zm0 0" fill="#fd9126"/><path d="m99.722656 98.488281v413.480469c.390625.007812.78125.03125 1.175782.03125 44.136718 0 80.039062-35.90625 80.039062-80.039062v-333.472657zm0 0" fill="#efe2dd"/><path d="m0 83.480469h201.796875v30.015625h-201.796875zm0 0" fill="#efe2dd"/><path d="m99.722656 83.480469h102.078125v30.015625h-102.078125zm0 0" fill="#ccbfba"/><path d="m20.863281 233.644531v198.316407c0 44.132812 35.902344 80.039062 80.035157 80.039062 44.136718 0 80.039062-35.90625 80.039062-80.039062v-198.316407zm0 0" fill="#c4e945"/><g fill="#9edb3d"><path d="m99.722656 233.644531v278.324219c.390625.007812.78125.03125 1.175782.03125 44.136718 0 80.039062-35.90625 80.039062-80.039062v-198.316407zm0 0"/><path d="m105.902344 342.851562c-14.894532 0-27.011719-12.117187-27.011719-27.011718 0-14.894532 12.117187-27.011719 27.011719-27.011719 14.894531 0 27.011718 12.117187 27.011718 27.011719 0 14.894531-12.117187 27.011718-27.011718 27.011718zm0 0"/><path d="m80.394531 397.8125c7.847657 0 15.367188-6.902344 15.003907-15.007812-.363282-8.132813-6.59375-15.007813-15.003907-15.007813-7.851562 0-15.371093 6.902344-15.007812 15.007813.363281 8.128906 6.59375 15.007812 15.007812 15.007812zm0 0"/></g><path d="m105.902344 288.828125c-2.128906 0-4.195313.253906-6.179688.71875v52.585937c1.984375.464844 4.050782.71875 6.179688.71875 14.894531 0 27.011718-12.117187 27.011718-27.011718 0-14.894532-12.117187-27.011719-27.011718-27.011719zm0 0" fill="#69ba30"/></svg>