<svg xmlns="http://www.w3.org/2000/svg" height="512pt" version="1.1" viewBox="0 0 512 512" width="512pt">
<g id="surface1">
<path d="M 512 256 C 512 397.386719 397.386719 512 256 512 C 114.613281 512 0 397.386719 0 256 C 0 114.613281 114.613281 0 256 0 C 397.386719 0 512 114.613281 512 256 Z M 512 256 " style=" stroke:none;fill-rule:nonzero;fill:rgb(35.294118%,32.941176%,87.843137%);fill-opacity:1;"/>
<path d="M 511.921875 262.351562 L 429.851562 180.285156 L 418.964844 199.019531 L 337.59375 117.652344 L 82.148438 372 L 219.554688 509.40625 C 231.460938 511.101562 243.625 512 256 512 C 395.261719 512 508.546875 400.800781 511.921875 262.351562 Z M 511.921875 262.351562 " style=" stroke:none;fill-rule:nonzero;fill:rgb(22.745098%,25.490196%,80%);fill-opacity:1;"/>
<path d="M 82.148438 180.285156 L 429.851562 180.285156 L 429.851562 372 L 82.148438 372 Z M 82.148438 180.285156 " style=" stroke:none;fill-rule:nonzero;fill:rgb(100%,85.490196%,0%);fill-opacity:1;"/>
<path d="M 255.761719 180.285156 L 429.851562 180.285156 L 429.851562 372 L 255.761719 372 Z M 255.761719 180.285156 " style=" stroke:none;fill-rule:nonzero;fill:rgb(100%,76.078431%,0%);fill-opacity:1;"/>
<path d="M 174.40625 117.652344 L 337.59375 117.652344 L 337.59375 372 L 174.40625 372 Z M 174.40625 117.652344 " style=" stroke:none;fill-rule:nonzero;fill:rgb(100%,58.431373%,0%);fill-opacity:1;"/>
<path d="M 255.761719 117.652344 L 337.59375 117.652344 L 337.59375 372 L 255.761719 372 Z M 255.761719 117.652344 " style=" stroke:none;fill-rule:nonzero;fill:rgb(99.607843%,50.980392%,1.960784%);fill-opacity:1;"/>
<path d="M 271.667969 284.667969 L 271.667969 165.492188 L 246.84375 154.15625 L 203.175781 191.996094 L 222.824219 214.667969 L 241.667969 198.339844 L 241.667969 284.667969 L 215.621094 284.667969 L 215.621094 314.667969 L 299.453125 314.667969 L 299.453125 284.667969 Z M 271.667969 284.667969 " style=" stroke:none;fill-rule:nonzero;fill:rgb(100%,100%,100%);fill-opacity:1;"/>
<path d="M 299.453125 284.667969 L 271.667969 284.667969 L 271.667969 165.492188 L 255.761719 158.230469 L 255.761719 314.667969 L 299.453125 314.667969 Z M 299.453125 284.667969 " style=" stroke:none;fill-rule:nonzero;fill:rgb(91.372549%,92.941176%,96.078431%);fill-opacity:1;"/>
</g>
</svg>